<svg xmlns="http://www.w3.org/2000/svg" viewBox="0 0 920 780" font-family="system-ui, -apple-system, sans-serif">
  <defs>
    <linearGradient id="bg" x1="0" y1="0" x2="1" y2="1">
      <stop offset="0%" stop-color="#0f1420"/>
      <stop offset="100%" stop-color="#161c2e"/>
    </linearGradient>
    <filter id="sh"><feDropShadow dx="0" dy="1" stdDeviation="2" flood-color="#000" flood-opacity="0.3"/></filter>
    <marker id="m" markerWidth="6" markerHeight="6" refX="5" refY="3" orient="auto">
      <path d="M0,0 L6,3 L0,6 Z" fill="#5a7a9a"/>
    </marker>
  </defs>

  <rect width="920" height="780" rx="12" fill="url(#bg)"/>

  <text x="430" y="48" text-anchor="middle" fill="#6a7d9a" font-size="10" font-weight="600" letter-spacing="3">AGENT LOOP · DECISION TREE</text>

  <rect x="620" y="68" width="12" height="12" rx="3" fill="#0098db" fill-opacity="0.25" stroke="#0098db" stroke-width="1"/>
  <text x="638" y="79" fill="#6a7d9a" font-size="8">decision</text>
  <rect x="688" y="68" width="12" height="12" rx="2" fill="#1a2845" stroke="#2a5a8a" stroke-width="1"/>
  <text x="706" y="79" fill="#6a7d9a" font-size="8">action</text>
  <rect x="756" y="68" width="12" height="12" rx="6" fill="#1a2a1a" stroke="#3a6a3a" stroke-width="1"/>
  <text x="774" y="79" fill="#6a7d9a" font-size="8">result</text>

  <rect x="340" y="72" width="180" height="34" rx="6" fill="#1e3050" stroke="#2a5a8a" stroke-width="1" filter="url(#sh)"/>
  <text x="430" y="88" text-anchor="middle" fill="#7a9ac0" font-size="10" font-weight="600">Ollama response</text>
  <text x="430" y="101" text-anchor="middle" fill="#5a7a9a" font-size="7">content + tool_calls?</text>

  <line x1="430" y1="106" x2="430" y2="128" stroke="#5a7a9a" stroke-width="1" marker-end="url(#m)"/>

  <polygon points="430,130 500,150 430,170 360,150" fill="#0098db" fill-opacity="0.08" stroke="#0098db" stroke-width="1" filter="url(#sh)"/>
  <text x="430" y="154" text-anchor="middle" fill="#0098db" font-size="8" font-weight="600">tool_calls?</text>

  <line x1="500" y1="150" x2="550" y2="150" stroke="#5aaa5a" stroke-width="1" marker-end="url(#m)"/>
  <text x="525" y="145" text-anchor="middle" fill="#5aaa5a" font-size="7" font-weight="600">yes</text>

  <rect x="552" y="132" width="130" height="36" rx="6" fill="#1a2a1a" fill-opacity="0.2" stroke="#3a6a3a" stroke-width="1"/>
  <text x="617" y="148" text-anchor="middle" fill="#5aaa5a" font-size="9" font-weight="600">Execute tool</text>
  <text x="617" y="162" text-anchor="middle" fill="#4a7a4a" font-size="7">stream chunks · store memory</text>

  <line x1="617" y1="168" x2="617" y2="192" stroke="#5a7a9a" stroke-width="1"/>
  <line x1="617" y1="192" x2="430" y2="192" stroke="#5a7a9a" stroke-width="1" stroke-dasharray="6,3"/>
  <line x1="430" y1="192" x2="430" y2="72" stroke="#5a7a9a" stroke-width="1" stroke-dasharray="6,3" marker-end="url(#m)"/>
  <text x="430" y="187" text-anchor="middle" fill="#5a7a9a" font-size="7">loop (max 15)</text>

  <line x1="430" y1="170" x2="430" y2="194" stroke="#ef4444" stroke-width="1" marker-end="url(#m)"/>
  <text x="442" y="186" fill="#ef4444" font-size="7" font-weight="600">no</text>

  <polygon points="430,196 490,214 430,232 370,214" fill="#0098db" fill-opacity="0.08" stroke="#0098db" stroke-width="1" filter="url(#sh)"/>
  <text x="430" y="217" text-anchor="middle" fill="#0098db" font-size="8" font-weight="600">content?</text>

  <line x1="490" y1="214" x2="530" y2="214" stroke="#5aaa5a" stroke-width="1" marker-end="url(#m)"/>
  <text x="510" y="209" text-anchor="middle" fill="#5aaa5a" font-size="7" font-weight="600">yes</text>

  <rect x="532" y="196" width="140" height="36" rx="6" fill="#1a2845" fill-opacity="0.2" stroke="#2a5a8a" stroke-width="1"/>
  <text x="602" y="212" text-anchor="middle" fill="#7a9ac0" font-size="9" font-weight="600">Classify response</text>
  <text x="602" y="226" text-anchor="middle" fill="#5a7a9a" font-size="7">greeting? advisory? giving up?</text>

  <line x1="602" y1="232" x2="602" y2="256" stroke="#5a7a9a" stroke-width="1" marker-end="url(#m)"/>

  <polygon points="602,258 660,276 602,294 544,276" fill="#0098db" fill-opacity="0.06" stroke="#0098db" stroke-width="1"/>
  <text x="602" y="279" text-anchor="middle" fill="#0098db" font-size="7" font-weight="600">greeting?</text>

  <line x1="660" y1="276" x2="700" y2="276" stroke="#5aaa5a" stroke-width="1" marker-end="url(#m)"/>
  <text x="680" y="271" text-anchor="middle" fill="#5aaa5a" font-size="6">yes</text>

  <rect x="702" y="261" width="64" height="30" rx="12" fill="#1a2a1a" fill-opacity="0.2" stroke="#3a6a3a" stroke-width="1"/>
  <text x="734" y="280" text-anchor="middle" fill="#5aaa5a" font-size="8" font-weight="600">yield</text>

  <line x1="602" y1="294" x2="602" y2="318" stroke="#ef4444" stroke-width="1" marker-end="url(#m)"/>
  <text x="614" y="310" fill="#ef4444" font-size="6">no</text>

  <polygon points="602,320 655,336 602,352 549,336" fill="#0098db" fill-opacity="0.06" stroke="#0098db" stroke-width="1"/>
  <text x="602" y="339" text-anchor="middle" fill="#0098db" font-size="7" font-weight="600">success?</text>

  <line x1="655" y1="336" x2="690" y2="336" stroke="#5aaa5a" stroke-width="1" marker-end="url(#m)"/>
  <rect x="692" y="321" width="60" height="30" rx="12" fill="#1a2a1a" fill-opacity="0.2" stroke="#3a6a3a" stroke-width="1"/>
  <text x="722" y="340" text-anchor="middle" fill="#5aaa5a" font-size="8" font-weight="600">yield</text>

  <line x1="602" y1="352" x2="602" y2="378" stroke="#ef4444" stroke-width="1" marker-end="url(#m)"/>

  <rect x="522" y="380" width="160" height="34" rx="6" fill="#1e3050" stroke="#2a5a8a" stroke-width="1"/>
  <text x="602" y="396" text-anchor="middle" fill="#7a9ac0" font-size="9" font-weight="600">Classify advisory</text>
  <text x="602" y="409" text-anchor="middle" fill="#5a7a9a" font-size="7">Ollama + regex fallback</text>

  <line x1="602" y1="414" x2="602" y2="438" stroke="#5a7a9a" stroke-width="1" marker-end="url(#m)"/>

  <polygon points="602,440 655,456 602,472 549,456" fill="#0098db" fill-opacity="0.06" stroke="#0098db" stroke-width="1"/>
  <text x="602" y="459" text-anchor="middle" fill="#0098db" font-size="7" font-weight="600">forceTool?</text>

  <line x1="655" y1="456" x2="700" y2="456" stroke="#5aaa5a" stroke-width="1" marker-end="url(#m)"/>
  <rect x="702" y="441" width="100" height="30" rx="6" fill="#1e3050" fill-opacity="0.2" stroke="#2a5a8a" stroke-width="1"/>
  <text x="752" y="457" text-anchor="middle" fill="#7a9ac0" font-size="7">re-prompt or yield</text>

  <line x1="602" y1="472" x2="602" y2="498" stroke="#ef4444" stroke-width="1" marker-end="url(#m)"/>

  <rect x="340" y="500" width="524" height="132" rx="8" fill="#1a2845" fill-opacity="0.08" stroke="#2a5a8a" stroke-width="0.5"/>
  <text x="602" y="518" text-anchor="middle" fill="#3a7acc" font-size="9" font-weight="700">FAILURE HANDLING (priority system)</text>

  <rect x="352" y="528" width="248" height="28" rx="5" fill="#1e2a38" stroke="#2a5a8a" stroke-width="0.4"/>
  <text x="476" y="546" text-anchor="middle" fill="#7a9ac0" font-size="8"><tspan fill="#cca86a" font-weight="600">P0</tspan>  fabrication without tool  →  askOpenCode</text>

  <rect x="352" y="560" width="248" height="28" rx="5" fill="#1e2a38" stroke="#2a5a8a" stroke-width="0.4"/>
  <text x="476" y="578" text-anchor="middle" fill="#7a9ac0" font-size="8"><tspan fill="#cca86a" font-weight="600">P1</tspan>  weak result + advisory/stuck  →  askOpenCode</text>

  <rect x="352" y="592" width="248" height="28" rx="5" fill="#1e2a38" stroke="#2a5a8a" stroke-width="0.4"/>
  <text x="476" y="610" text-anchor="middle" fill="#7a9ac0" font-size="8"><tspan fill="#cca86a" font-weight="600">P2</tspan>  advisory  →  FORCE_TOOL_MSG  (stuckCount++)</text>

  <rect x="610" y="528" width="242" height="28" rx="5" fill="#1e2a38" stroke="#2a5a8a" stroke-width="0.4"/>
  <text x="731" y="546" text-anchor="middle" fill="#7a9ac0" font-size="8"><tspan fill="#cca86a" font-weight="600">P3</tspan>  weak result  →  PERSIST_MSG</text>

  <rect x="610" y="560" width="242" height="28" rx="5" fill="#1e2a38" stroke="#2a5a8a" stroke-width="0.4"/>
  <text x="731" y="578" text-anchor="middle" fill="#7a9ac0" font-size="8"><tspan fill="#cca86a" font-weight="600">P4</tspan>  giving up  →  PERSIST_MSG</text>

  <rect x="610" y="592" width="242" height="28" rx="5" fill="#1a2a1a" fill-opacity="0.15" stroke="#3a6a3a" stroke-width="0.4"/>
  <text x="731" y="610" text-anchor="middle" fill="#5aaa5a" font-size="8" font-weight="600">none matched  →  YIELD text response</text>

  <line x1="370" y1="214" x2="200" y2="214" stroke="#ef4444" stroke-width="1" marker-end="url(#m)"/>

  <rect x="60" y="194" width="138" height="40" rx="6" fill="#1e2a38" fill-opacity="0.2" stroke="#2a5a8a" stroke-width="1"/>
  <text x="129" y="212" text-anchor="middle" fill="#7a9ac0" font-size="8" font-weight="600">Empty response</text>
  <text x="129" y="226" text-anchor="middle" fill="#5a7a9a" font-size="7">emptyCount >= 2?</text>

  <line x1="129" y1="234" x2="129" y2="258" stroke="#5a7a9a" stroke-width="1" marker-end="url(#m)"/>

  <polygon points="129,260 168,278 129,296 90,278" fill="#0098db" fill-opacity="0.06" stroke="#0098db" stroke-width="1"/>
  <text x="129" y="281" text-anchor="middle" fill="#0098db" font-size="7" font-weight="600">≥ 2?</text>

  <line x1="168" y1="278" x2="205" y2="278" stroke="#5aaa5a" stroke-width="1" marker-end="url(#m)"/>
  <rect x="60" y="301" width="160" height="28" rx="6" fill="#1e2a38" fill-opacity="0.2" stroke="#2a5a8a" stroke-width="1"/>
  <text x="140" y="319" text-anchor="middle" fill="#7a9ac0" font-size="7">askOpenCode (once)</text>

  <line x1="129" y1="296" x2="129" y2="346" stroke="#ef4444" stroke-width="1" marker-end="url(#m)"/>

  <rect x="60" y="348" width="160" height="28" rx="6" fill="#1e2a38" fill-opacity="0.2" stroke="#2a5a8a" stroke-width="1"/>
  <text x="140" y="366" text-anchor="middle" fill="#7a9ac0" font-size="7">FORCE_TOOL_MSG</text>

  <line x1="129" y1="376" x2="129" y2="400" stroke="#5a7a9a" stroke-width="1" stroke-dasharray="6,3"/>
  <text x="129" y="395" text-anchor="middle" fill="#5a7a9a" font-size="6">loop</text>

  <line x1="602" y1="632" x2="602" y2="670" stroke="#5a7a9a" stroke-width="1" marker-end="url(#m)"/>
  <line x1="129" y1="400" x2="129" y2="670" stroke="#5a7a9a" stroke-width="1"/>
  <line x1="129" y1="670" x2="602" y2="670" stroke="#5a7a9a" stroke-width="1"/>

  <rect x="490" y="672" width="224" height="30" rx="6" fill="#1e2a38" stroke="#ef4444" stroke-width="0.8"/>
  <text x="602" y="691" text-anchor="middle" fill="#ef4444" font-size="8" font-weight="600">loop == 15  →  error (exceeded max iterations)</text>

  <text x="680" y="738" text-anchor="middle" fill="#6a7d9a" font-size="8">All paths that yield (greeting, success, P0/P1, or no failure pattern)</text>
  <text x="680" y="753" text-anchor="middle" fill="#6a7d9a" font-size="8">persist assistant message + tool_results JSON to SQLite</text>

</svg>
